<svg width="20" height="20" viewBox="0 0 20 20" fill="none" xmlns="http://www.w3.org/2000/svg">
<g clip-path="url(#clip0_2099_292)">
<path d="M5.52051 14.4792C5.52051 16.8575 7.37467 18.8063 9.72217 18.9496C9.81592 18.9538 9.90551 18.9583 9.99967 18.9583C10.0938 18.9583 10.183 18.9542 10.273 18.9496C15.0926 18.81 18.958 14.86 18.958 10C18.958 5.14001 15.0926 1.18959 10.273 1.05084C12.6201 1.19418 14.4788 3.14251 14.4788 5.52084C14.4788 7.99334 12.4722 10 9.99967 10C7.52259 10 5.52051 12.0067 5.52051 14.4792Z" fill="#262B2F" stroke="#262B2F" stroke-width="0.75" stroke-linecap="round" stroke-linejoin="round"/>
<path d="M1.04199 9.99999C1.04199 14.8554 4.90324 18.8062 9.72283 18.9496C7.37574 18.8062 5.52116 16.8579 5.52116 14.4792C5.52116 12.0067 7.52324 9.99999 10.0003 9.99999C12.4728 9.99999 14.4795 7.99332 14.4795 5.52082C14.4795 3.14249 12.6207 1.19416 10.2737 1.05082C10.1841 1.04624 10.0945 1.04166 10.0003 1.04166C9.90616 1.04166 9.81241 1.04166 9.72283 1.05041C4.90324 1.19416 1.04199 5.14499 1.04199 9.99999Z" fill="#9CC4EA" stroke="#262B2F" stroke-width="0.75" stroke-linecap="round" stroke-linejoin="round"/>
<path d="M9.15469 14.8486C9.08276 14.6746 9.04579 14.4882 9.0459 14.3V14.2983C9.04612 13.9182 9.19734 13.5537 9.4663 13.2851C9.73526 13.0164 10.0999 12.8656 10.4801 12.8658C10.6683 12.866 10.8547 12.9031 11.0285 12.9753C11.2024 13.0474 11.3603 13.1531 11.4933 13.2862C11.762 13.5552 11.9128 13.9199 11.9126 14.3V14.3017C11.9125 14.4899 11.8753 14.6763 11.8031 14.8501C11.731 15.024 11.6253 15.1819 11.4922 15.315C11.2232 15.5836 10.8585 15.7344 10.4784 15.7342C10.0983 15.734 9.73377 15.5827 9.46512 15.3138C9.3321 15.1806 9.22662 15.0225 9.15469 14.8486Z" fill="#9CC4EA" stroke="#9CC4EA" stroke-width="0.5" stroke-linecap="round" stroke-linejoin="round"/>
<path d="M9.0459 5.34167C9.04568 5.72181 9.19648 6.08647 9.46512 6.35543C9.73377 6.62439 10.0983 6.77561 10.4784 6.77583C10.8585 6.77606 11.2232 6.62526 11.4922 6.35661C11.7611 6.08796 11.9123 5.72348 11.9126 5.34334V5.34167C11.9128 4.96152 11.762 4.59686 11.4933 4.3279C11.3603 4.19473 11.2024 4.08906 11.0285 4.01693C10.8547 3.94479 10.6683 3.90761 10.4801 3.9075C10.0999 3.90728 9.73526 4.05808 9.4663 4.32673C9.19734 4.59537 9.04612 4.95986 9.0459 5.34V5.34167Z" fill="#262B2F" stroke="#262B2F" stroke-width="0.5" stroke-linecap="round" stroke-linejoin="round"/>
</g>
<defs>
<clipPath id="clip0_2099_292">
<rect width="20" height="20" fill="white"/>
</clipPath>
</defs>
</svg>
