<svg width="14" height="15" viewBox="0 0 14 15" fill="none" xmlns="http://www.w3.org/2000/svg">
<path d="M7.75246 5.91917L5.41913 8.25251C5.36446 8.30673 5.32106 8.37125 5.29144 8.44234C5.26183 8.51342 5.24658 8.58967 5.24658 8.66667C5.24658 8.74368 5.26183 8.81992 5.29144 8.89101C5.32106 8.96209 5.36446 9.02661 5.41913 9.08084C5.47336 9.13551 5.53788 9.17891 5.60896 9.20853C5.68005 9.23814 5.75629 9.25339 5.8333 9.25339C5.9103 9.25339 5.98655 9.23814 6.05763 9.20853C6.12872 9.17891 6.19324 9.13551 6.24746 9.08084L8.5808 6.74751C8.69064 6.63766 8.75235 6.48868 8.75235 6.33334C8.75235 6.178 8.69064 6.02902 8.5808 5.91917C8.47095 5.80933 8.32197 5.74762 8.16663 5.74762C8.01129 5.74762 7.86231 5.80933 7.75246 5.91917Z" fill="#3D2B20"/>
<path d="M7.16323 10.65L6.41656 11.3908C5.99739 11.8228 5.4339 12.0853 4.83356 12.1283C4.23323 12.1713 3.63805 11.9919 3.16156 11.6242C2.90972 11.4166 2.70421 11.1586 2.5583 10.8667C2.4124 10.5748 2.32934 10.2556 2.3145 9.92957C2.29965 9.60358 2.35335 9.2781 2.47213 8.97415C2.59091 8.6702 2.77212 8.39455 3.00406 8.165L3.8324 7.33083C3.88707 7.27661 3.93047 7.21209 3.96008 7.141C3.9897 7.06992 4.00495 6.99367 4.00495 6.91667C4.00495 6.83966 3.9897 6.76342 3.96008 6.69233C3.93047 6.62125 3.88707 6.55673 3.8324 6.5025C3.77817 6.44783 3.71365 6.40443 3.64257 6.37481C3.57148 6.3452 3.49524 6.32995 3.41823 6.32995C3.34122 6.32995 3.26498 6.3452 3.19389 6.37481C3.12281 6.40443 3.05829 6.44783 3.00406 6.5025L2.26323 7.24917C1.63915 7.8535 1.25557 8.66376 1.18369 9.52952C1.11182 10.3953 1.35653 11.2577 1.8724 11.9567C2.17858 12.3539 2.56577 12.6814 3.00826 12.9174C3.45074 13.1535 3.93839 13.2927 4.43882 13.3258C4.93924 13.3589 5.44098 13.2852 5.91071 13.1094C6.38043 12.9337 6.80739 12.6601 7.16323 12.3067L7.99156 11.4783C8.10141 11.3685 8.16312 11.2195 8.16312 11.0642C8.16312 10.9088 8.10141 10.7598 7.99156 10.65C7.88172 10.5402 7.73274 10.4784 7.5774 10.4784C7.42205 10.4784 7.27307 10.5402 7.16323 10.65ZM11.4682 2.37833C10.7644 1.85711 9.89496 1.6099 9.02222 1.6829C8.14948 1.7559 7.33316 2.1441 6.72573 2.775L6.09573 3.41667C6.02372 3.46901 5.96351 3.5359 5.91899 3.61299C5.87447 3.69008 5.84663 3.77567 5.83729 3.8642C5.82794 3.95273 5.83729 4.04224 5.86472 4.12693C5.89216 4.21162 5.93708 4.2896 5.99656 4.35583C6.05079 4.41051 6.11531 4.45391 6.18639 4.48352C6.25748 4.51314 6.33372 4.52838 6.41073 4.52838C6.48774 4.52838 6.56398 4.51314 6.63507 4.48352C6.70615 4.45391 6.77067 4.41051 6.8249 4.35583L7.58323 3.59167C8.00008 3.15785 8.5629 2.89391 9.16299 2.85081C9.76307 2.80772 10.3578 2.98853 10.8324 3.35833C11.0861 3.56589 11.2933 3.82457 11.4403 4.11752C11.5874 4.41048 11.6711 4.73113 11.6859 5.05859C11.7008 5.38605 11.6465 5.71297 11.5266 6.01804C11.4066 6.32311 11.2238 6.59949 10.9899 6.82917L10.1616 7.66333C10.1069 7.71756 10.0635 7.78208 10.0339 7.85316C10.0043 7.92425 9.98901 8.00049 9.98901 8.0775C9.98901 8.15451 10.0043 8.23075 10.0339 8.30184C10.0635 8.37292 10.1069 8.43744 10.1616 8.49167C10.2158 8.54634 10.2803 8.58974 10.3514 8.61935C10.4225 8.64897 10.4987 8.66422 10.5757 8.66422C10.6527 8.66422 10.729 8.64897 10.8001 8.61935C10.8711 8.58974 10.9357 8.54634 10.9899 8.49167L11.8182 7.66333C12.1707 7.30756 12.4435 6.88097 12.6186 6.41182C12.7937 5.94266 12.8672 5.44165 12.8341 4.94197C12.801 4.44229 12.6621 3.95534 12.4266 3.51338C12.1912 3.07142 11.8645 2.68453 11.4682 2.37833Z" fill="#3D2B20"/>
</svg>
